# xmcd
#
# Track frame offsets: 
#        150
#        11362
#        25502
#        37305
#        47575
#        58715
#        75605
#        88800
#        100380
#        114035
#        125805
#        139800
#        153935
#        184475
#        195642
#        208240
#        221435
#        233852
#        246625
#        259922
#        270055
#        283480
#
# Disc length: 3911 seconds
#
# Revision: 0
# Processed by: cddbd v1.5.2PL0 Copyright (c) Steve Scherf et al.
# Submitted via: ExactAudioCopy v0.99pb4
#
DISCID=450f4516
DTITLE=Various Artist - Masters Box Disc 3
DYEAR=1995
DGENRE=Country
TTITLE0=Conway Twitty - Hello Darlin'
TTITLE1=Conway Twitty - You've Never Been This Far Before
TTITLE2=Conway Twitty - (Lying Here With) Linda On My Mind
TTITLE3=Conway Twitty - (I Can't Believe) She Gives It All To Me
TTITLE4=Conway Twitty - It's Only Make Believe
TTITLE5=Conway Twitty - Don't Cry Joni
TTITLE6=Conway Twitty - Danny Boy
TTITLE7=Conway Twitty - To See My Angel Cry
TTITLE8=Conway Twitty - Baby's Gone
TTITLE9=Conway Twitty - I'm Not Through Loving You Yet
TTITLE10=Joe Tex - Skinny Legs And All
TTITLE11=Joe Tex - Hold What You Got
TTITLE12=Joe Tex - Ain't Gonna Bump No More With No Big Fat Woman
TTITLE13=Joe Tex - I Gotcha
TTITLE14=Joe Tex - S.Y.S.L.J.F.M.
TTITLE15=Joe Tex - Show Me
TTITLE16=Jerry Fuller and Wynn Stewart - Wishful Thinking
TTITLE17=Gene Vincent - Bird-Doggin'
TTITLE18=Gene Vincent - Ain't That Too Much
TTITLE19=Gene Vincent - Born To Be A Rolling Stone
TTITLE20=Gene Vincent - I'm A Lonesome Fugitive
TTITLE21=Gene Vincent - Lonely Street
EXTD=
EXTT0=
EXTT1=
EXTT2=
EXTT3=
EXTT4=
EXTT5=
EXTT6=
EXTT7=
EXTT8=
EXTT9=
EXTT10=
EXTT11=
EXTT12=
EXTT13=
EXTT14=
EXTT15=
EXTT16=
EXTT17=
EXTT18=
EXTT19=
EXTT20=
EXTT21=
PLAYORDER=
